<?xml version="1.0" encoding="utf-8"?>
<!-- Generator: Adobe Illustrator 22.0.1, SVG Export Plug-In . SVG Version: 6.00 Build 0)  -->
<svg version="1.1" id="Слой_1" xmlns="http://www.w3.org/2000/svg" xmlns:xlink="http://www.w3.org/1999/xlink" x="0px" y="0px"
	 viewBox="0 0 1000 1000" style="enable-background:new 0 0 1000 1000;" xml:space="preserve">
<style type="text/css">
	.st0{fill:none;}
	.st1{fill:none;stroke:#000000;stroke-width:5.8969;stroke-miterlimit:10;}
	.st2{fill:none;stroke:#000000;stroke-width:4.9346;stroke-miterlimit:10;}
</style>
<g>
	<path class="st0" d="M2.9,347.9v169.2c-2.7-41.2-2.8-82.5-2.1-123.9c0.2-13.8,0.1-27.6,0.2-41.5C1.2,349.2,1.9,348.2,2.9,347.9z"/>
	<path d="M658.1,998.3c-0.3,0.1-0.7,0.1-1.1,0.2c-13.8,0.2-27.6,0.3-41.4,0.8c-45.4,1.4-90.7,1.9-135.8-0.9H658.1z"/>
	<path class="st1" d="M1000.5,0.4v997.9H479.7c-25.8-1.6-51.5-4.3-77.2-8.4c-46.3-7.4-91.3-19.2-131.1-45.7
		c-29.8-19.8-51.1-46.7-65-79.4c-6.6-15.5-11.9-31.5-17.7-47.3c-15.9-5.6-32-10.7-47.5-17.1c-32.8-13.5-60-34.3-80.3-63.9
		c-27-39.5-39.4-84.2-47.6-130.5c-5.2-29.6-8.4-59.3-10.4-89.1V0.4H1000.5z"/>
	<path class="st2" d="M678,761c-43.7-43.7-127,39.5-170.7-4.2c-43.7-43.7,39.5-127-4.2-170.8c-43.7-43.7-127,39.5-170.7-4.2
		c-43.7-43.7,39.5-127-4.2-170.8s-127,39.5-170.7-4.2"/>
	<path class="st2" d="M846.5,592.5c-43.7-43.7-127,39.5-170.7-4.2c-43.7-43.7,39.5-127-4.2-170.8c-43.7-43.7-127,39.5-170.7-4.2
		c-43.7-43.7,39.5-127-4.2-170.8s-127,39.5-170.7-4.2"/>
</g>
</svg>
